<svg width="22" height="25" viewBox="0 0 22 25" fill="none" xmlns="http://www.w3.org/2000/svg">
<g opacity="0.299219">
<g filter="url(#filter0_d)">
<path fill-rule="evenodd" clip-rule="evenodd" d="M10.9156 0.375244C12.475 0.375244 13.989 0.901804 15.1828 1.85804V1.85801C16.7422 3.10637 17.6594 4.88137 17.7703 6.85481C17.8766 8.80317 17.1484 10.7094 15.7734 12.0844L11.2154 16.5828C11.0389 16.7578 10.7326 16.7562 10.5561 16.5812L6.06248 12.0876C4.68436 10.7095 3.95467 8.80172 4.06248 6.85484C4.17184 4.88148 5.0906 3.10648 6.6484 1.85804C7.8406 0.901804 9.35624 0.375244 10.9156 0.375244ZM7.85312 7.23476C7.85312 8.9238 9.22652 10.2972 10.9156 10.2972C12.6046 10.2972 13.9796 8.92384 13.9781 7.23476C13.9781 5.54572 12.6047 4.17228 10.9156 4.17228C9.22656 4.17228 7.85312 5.54568 7.85312 7.23476Z" fill="white"/>
</g>
<path d="M10.9156 5.74194C10.0922 5.74194 9.4234 6.4107 9.4234 7.23414C9.4234 8.05758 10.0922 8.72634 10.9156 8.72634C11.739 8.72634 12.4078 8.05758 12.4078 7.23414C12.4078 6.4107 11.739 5.74194 10.9156 5.74194Z" fill="white"/>
</g>
<defs>
<filter id="filter0_d" x="0.0520172" y="0.375244" width="21.7285" height="24.338" filterUnits="userSpaceOnUse" color-interpolation-filters="sRGB">
<feFlood flood-opacity="0" result="BackgroundImageFix"/>
<feColorMatrix in="SourceAlpha" type="matrix" values="0 0 0 0 0 0 0 0 0 0 0 0 0 0 0 0 0 0 127 0"/>
<feOffset dy="4"/>
<feGaussianBlur stdDeviation="2"/>
<feColorMatrix type="matrix" values="0 0 0 0 0 0 0 0 0 0 0 0 0 0 0 0 0 0 0.25 0"/>
<feBlend mode="normal" in2="BackgroundImageFix" result="effect1_dropShadow"/>
<feBlend mode="normal" in="SourceGraphic" in2="effect1_dropShadow" result="shape"/>
</filter>
</defs>
</svg>
